**ABCDEFGHIJKLMNOPQRSTUVWXYZabcdefghijklmnopqrstuvwxyz**************************
**PARASOLID !"#$%&'()*+,-./:;<=>?@[\]^_`{|}~0123456789**************************
**PART1;
MC=AMD64;
MC_MODEL=Intel64 Family 6 Model 142 Stepping 9, GenuineIntel;
MC_ID=unknown;
OS=Windows_NT;
OS_RELEASE=unknown;
FRU=Parasolid Version 30.0, build 298, 12-15-2017;
APPL=SOLIDWORKS 2018-2018134;
SITE=;
USER=unknown;
FORMAT=text;
GUISE=transmit;
KEY=Part_Pintle_V2.0;
FILE=Part_Pintle_V2.0.x_t;
DATE=Sat Feb 23 21:13:38 2019;
**PART2;
SCH=SCH_3000298_30000;
USFLD_SIZE=0;
**PART3;
**END_OF_HEADER*****************************************************************
T51 : TRANSMIT FILE created by modeller version 300029823 SCH_3000298_30000_1300
6205 0 12 33 CCCCCCI4 mesh1006 0 I8 polyline1008 0 CCCCCCCDI5 owner1040 0 CCCCCC
I13 boundary_mesh1006 0 I17 boundary_polyline1008 0 CCCA16 index_map_offset0 0 1
 dA9 index_map82 0 A17 node_id_index_map82 0 A20 schema_embedding_map82 0 A5 chi
ld12 0 A14 lowest_node_id0 0 1 dZ1 1378 2 3 0 0 0 0 0 0 1e3 1e-8 0 4 0 1 0 1 1 5
 6 7 8 0 0 9 10 11 0 0 0 0 0 0 81 255 2 2 1057 12 1 0 0 0 0 13 0 70 11 CI9 list_
type0 0 1 uI10 notransmit0 0 1 lCCCDCCDI12 finger_index0 0 1 dI12 finger_block10
12 0 CZ3 0 4 T1 0 0 3 20 1 14 14 13 255 5 977 0 1 0 15 0 0 16 0 50 255 6 88 0 17
 18 0 0 +0 .05588 0 0 0 -1 -1 0 0 38 12 CCCCCCCCCCCA17 intersection_data204 0 Z7
 343 0 10 19 0 0 +20 21 22 23 24 25 29 255 8 317 0 11 26 0 .003048 .05082032 0 1
9 8 CCCCCCCA5 owner12 0 Z9 979 0 1 16 0 27 V0 16 255 10 341 0 ?28 0 29 7 0 0 1 1
8 255 11 315 0 30 0 31 8 ?1 17 255 30 0 32 33 34 11 35 36 0 37 -18 31 63 0 38 11
 39 26 ?1 17 38 0 40 41 42 31 43 44 0 45 +18 39 569 0 46 31 47 48 ?1 29 26 72 0
 31 48 8 .00762 0 0 29 48 888 0 39 49 26 .00762 .05214112 -.004572 29 49 892 0 4
7 50 48 .003048 .05214112 208166817117217e-32 18 47 602 0 33 39 51 49 ?1 29 50 9
02 0 51 52 49 .00762 .05082032 -.004572 18 51 598 0 28 47 53 50 ?1 29 52 905 0 5
3 54 50 .0055753 .05082032 749579103722179e-32 18 53 576 0 55 51 56 52 ?1 29 54
 908 0 56 57 52 .00709079269847887 .0510856658366037 -.001975028537013255 18 56
 571 0 58 53 59 54 ?1 29 57 909 0 59 60 54 .00709079269847886 .0518757741633963
 -.001975028537013255 18 59 572 0 61 56 62 57 ?1 29 60 910 0 62 63 57 .006174178
76450786 .0510856658366037 -.001445821235492124 18 62 573 0 64 59 65 60 ?1 29 63
 911 0 65 66 60 .00617417876450785 .0518757741633963 -.001445821235492122 18 65
 574 0 67 62 68 63 ?1 29 66 912 0 68 69 63 .00564497146298674 .0510856658366037
 -.000529207301521118 18 68 577 0 70 65 71 66 ?1 29 69 913 0 71 72 66 .005644971
46298674 .0518757741633963 -.000529207301521113 18 71 578 0 73 68 74 69 ?1 29 72
 914 0 74 75 69 .00659765 .05214112 -.001770762143118035 18 74 605 0 76 71 77 72
 ?1 29 75 915 0 77 78 72 .00584923785688195 .05214112 -.00102235 18 77 604 0 79
 74 80 75 ?1 29 78 916 0 80 81 75 .00762 .053321628095412 197458368642064e-48 18
 80 580 0 82 77 83 78 ?1 29 81 921 0 83 84 78 .00127 .000839470000000016 2891205
79329468e-32 18 83 584 0 85 80 86 81 ?1 29 84 923 0 86 87 81 .00127 .0127 289120
579329468e-32 18 86 585 0 88 83 89 84 ?1 29 87 924 0 89 90 84 .00246253 .0127 23
48237345313945e-33 18 89 586 0 91 86 92 87 ?1 29 90 926 0 92 93 87 .0055753 .018
09147579227615 930968265440887e-33 18 92 587 0 94 89 95 90 ?1 29 93 930 0 95 96
 90 .0055753 .05214112 930968265440887e-33 18 95 582 0 97 92 98 93 ?1 29 96 931
 0 98 99 93 .000418337999999987 0 327897431429137e-32 18 98 583 0 100 95 101 96
 ?1 29 99 940 0 101 102 96 .00762 .000839470000000016 -.00635 18 101 594 0 103 9
8 104 99 ?1 29 102 942 0 104 105 99 .00762 .0127 -.00635 18 104 593 0 106 101 10
7 102 ?1 29 105 943 0 107 108 102 .00762 .0127 -.00515747 18 107 592 0 109 104 1
10 105 ?1 29 108 945 0 110 111 105 .00762 .01809147579227615 -.0020447 18 110 59
1 0 112 107 113 108 ?1 29 111 947 0 113 114 108 .00762 .05082032 -.0020447 18 11
3 590 0 115 110 116 111 ?1 29 114 949 0 116 117 111 .00762 .05214112 -.0020447 1
8 116 570 0 118 113 119 114 ?1 29 117 951 0 119 0 114 .00762 0 -.007201662 18 11
9 595 0 120 116 0 117 ?1 17 120 0 121 100 122 119 123 124 0 125 +15 255 121 733
 0 85 126 0 17 100 0 121 85 120 98 125 127 0 128 +17 122 0 121 120 85 101 129 13
0 0 123 +17 123 0 40 131 41 101 120 124 0 0 -16 124 494 0 ?120 132 133 134 0 0 1
 17 125 0 135 136 137 119 100 127 0 41 -15 135 358 0 125 138 0 17 136 0 135 137
 125 31 41 139 0 0 -17 137 0 135 125 136 98 45 140 0 0 -16 127 456 0 ?100 141 13
0 142 0 0 1 17 41 0 40 123 38 119 136 139 0 0 +15 40 380 0 41 143 0 16 139 49 0
 ?41 44 140 144 0 0 1 16 44 373 0 ?38 29 139 145 0 0 1 16 140 355 0 ?45 139 146
 147 0 0 1 30 255 144 67 0 139 147 145 0 +.00762 0 0 0 0 -1 30 147 68 0 140 148
 144 0 +0 0 0 1 0 0 30 145 92 0 44 144 149 0 +.00762 .05588 0 0 -1 0 38 149 326
 0 29 145 150 0 +20 151 152 153 154 155 16 29 324 0 ?33 10 44 149 0 0 1 38 150 3
32 0 156 149 19 0 +20 157 158 159 159 160 51 255 20 258 0 161 162 163 164 -.0076
2 .015494 0 0 1 0 .004572 0 0 1 51 151 800 0 165 166 157 167 +.025401 .05148072
 -809583152922405e-32 -1 493038065763132e-46 455307998944044e-30 6604e-7 -455307
998944044e-30 -1110223024625156e-31 -1 40 255 11 152 0 1 11 377576810618559e-19
 .3404845650296205 ??.003048 .05082032 -839862774855255e-33 .003053167579666025
 .0508570995101077 -.0002173146211982415 .003066430741464945 .0509630935398229 -
.000410110970012444 .00308218786263265 .0511276149815729 -.000558072581266624 .0
03093536712912265 .0513330241999478 -.000643672362811186 .00309535492112284 .051
5539132360761 -.000656331402717185 .00308702968240262 .0517649101831852 -.000596
124231835226 .003072198190600015 .0519448810254876 -.000469768775482423 .0030571
73682869985 .0520742923715725 -.0002894822960143785 .003048632763699815 .0521367
250069312 -760630717313524e-19 .003048 .05214112 -1485673836886068e-33 41 3 CI8
 term_use0 0 1 cCZ1 153 L?.003048 .05082032 -839862774855255e-33 41 1 154 L?.003
048 .05214112 -1485673836886068e-33 204 2 17 INTERSECTION_DATA17 Intersection da
ta7 uv_type0 0 1 u6 values0 1 1 fT44 155 4 4.71238898038469 .03532632 1.57079632
679489 .022353 4.66483943254339 .0353630995101077 1.235482913835046 .02234783242
0334 4.62256768931121 .03546909353982285 .900773483939256 .02233456925853505 4.5
9002069932393 .03563361498157285 .564133232513325 .02231881213736735 4.571133974
68066 .03583902419994775 .2255535982387195 .02230746328708775 4.56833674120605 .
03605991323607605 6.1721254687761 .02230564507887715 4.5816308106783 .0362709101
831852 5.8383265592817 .0223139703175974 4.6094582466491 .0364508810254876 5.503
79153789955 .0223288018094 4.64903026074116 .0365802923715725 5.16614424510699 .
02234382631713 4.69575149548474 .03664272500693115 4.82782243984985 .02235236723
63002 4.71238898038469 .03664712 4.7123889803847 .022353 14 255 165 650 168 ?169
 170 32 5 151 +0 0 169 170 27 52 255 166 802 0 171 0 151 0 +.00762 .05214112 0 2
46519032881566e-46 -1 0 .0020447 .866025403784442 .5 455307998944044e-30 1110223
024625156e-31 1 51 157 798 0 169 151 172 173 +.0286551488523456 .05148072 .01214
46488523454 -.866025403784442 -555111512312572e-31 -.5 6604e-7 .5 -9614813431917
86e-31 -.866025403784442 141 255 167 149 174 174 151 141 174 175 167 167 151 38
 175 848 0 176 177 178 0 +151 179 180 181 181 182 16 176 473 0 ?70 183 184 175 1
84 184 1 30 177 854 0 185 186 175 0 +.00762 .00709856633164335 0 .712186069434 .
701990742463282 -3242640141498185e-31 32 255 178 847 0 183 175 187 0 -.00762 .05
148072 1579666949136515e-48 .2588190451025175 -1072393092426204e-31 -.9659258262
89069 -.965925826289069 -287346863084312e-31 -.2588190451025175 .002551589662725
23 6604e-7 51 179 793 0 1 21 188 189 +.00762 .04026307548697755 0 24651903288156
6e-46 -1 0 .0020447 455307998944044e-30 1110223024625156e-31 1 40 20 180 0 1 20
 401915004439288e-19 .3533903925541025 ??.00568488503442302 .05148072 -6604e-7 .
00567330280313497 .0516927578416278 -.000625434340053232 .00564397049099632 .051
8807483620611 -.000525457390800315 .00560824294717009 .0520307168269098 -.000365
5566308919975 .00558148185974869 .0521217241170957 -.0001588769393786645 .005576
18975341753 .0521383600185782 603138952853601e-19 .00559252599264403 .0520856835
695677 .000264853241429905 .00562389471344668 .0519703794582014 .000443127267265
186 .00565929317420614 .0517964751689437 .00058002313168128 .00568219796764364 .
0515827336589112 .00065247327408527 .00568146455376189 .0513656124575817 .000650
291022295721 .00565977030836952 .0511679413019566 .00058163360120464 .0056256600
7771461 .0509983075254294 .000451005947165551 .00559239124791062 .05087530500055
79 .000263819708229997 .005575820898785 .0508219345509772 461507546618215e-19 .0
0558218072213352 .0508419418857504 -.0001676027468621675 .00560723448748219 .050
9270458373546 -.0003599626114180845 .00564245115320079 .0510732528093246 -.00051
9710158187331 .00567360276611055 .0512714539920281 -.000626367222887252 .0056848
8503442302 .05148072 -6604e-7 41 1 181 H?.00568488503442302 .05148072 -6604e-7 2
04 80 182 4 0 .019716114965577 1.89967432818728 -.01121764451302244 5.9563210800
393 .01972769719686505 1.881659693336395 -.01142968235465024 5.63249416797993 .0
197570295090037 1.83069753463759 -.0116176728750836 5.29899569389792 .0197927570
528299 1.75054522817409 -.0117676413399323 4.95534907308196 .0198195181402513 1.
64857656213928 -.01185864863011816 4.62093219900375 .01982481024658245 1.5412943
7278664 -.01187528453160062 4.29972649876327 .01980847400735595 1.4408997517467
 -.01182260808259012 3.976834632654945 .0197771052865533 1.352343025930354 -.011
70730397122384 3.640113742969695 .01974170682579385 1.283175585666424 -.01153339
96819661 3.29668620668295 .01971880203235635 1.24601173347225 -.0113196581719336
4 2.96639808505176 .0197195354462381 1.24713766823467 -.01110253697060412 2.6481
9608043284 .0197412296916305 1.282354113844252 -.01090486581497904 2.32256039547
3095 .0197753399222854 1.34839425868735 -.01073523203845188 1.981751023802185 .0
198086087520894 1.441409498767334 -.01061222951358038 1.640736365235435 .0198251
79101215 1.548223492581715 -.01055885906399966 1.31420005122371 .019818819277866
5 1.652857755407065 -.01057886639877286 .994326640753856 .0197937655125178 1.747
765263206605 -.01066397035037706 .664925609101297 .0197585488467992 1.8277901793
01515 -.01081017732234704 .322435683179611 .01972739723388945 1.88213894336886 -
.0110083785050505 0 .019716114965577 1.89967432818728 -.01121764451302244 51 21
 794 0 190 172 179 191 +.00762 .05148072 .017781 -394678933778718e-29 -111022302
4625156e-31 -1 6604e-7 1 -4369361038195845e-46 -394678933778718e-29 51 188 789 0
 192 179 193 0 -.00762 0 0 -246519032881566e-46 1 0 .00635 -455307998944044e-30
 -1110223024625156e-31 -1 141 189 194 195 196 179 38 194 840 0 197 198 199 0 +21
 179 200 201 201 202 141 195 203 204 189 179 141 196 175 189 204 179 141 204 187
 196 195 179 38 187 845 0 205 178 206 0 +157 179 207 208 208 209 16 205 469 0 ?2
10 211 212 187 213 212 1 32 206 844 0 211 187 203 0 -.00762 .05148072 5204170427
93042e-32 .707106781186544 -785046229341892e-31 -.707106781186551 -.707106781186
552 -785046229341883e-31 -.707106781186544 .002551589662725195 6604e-7 40 20 207
 0 1 20 4019150044392875e-20 .353390392554104 ??.00627434128056687 .05148072 -.0
01539480659447725 .00624682794406553 .0516927578416278 -.00151499062531776 .0061
7143694197527 .0518807483620611 -.001443074203541192 .00606054560145277 .0520307
168269098 -.001322459855289266 .00593402997415628 .0521217241170957 -.0011568505
35703088 .00581985145830195 .0521383600185782 -.000969671757772908 .005731729383
40213 .0520856835695677 -.000784367368325021 .00566975847958381 .051970379458201
4 -.000614293172715416 .00563196651364832 .0517964751689437 -.000478038646078323
 .00561557757543164 .0515827336589112 -.0004038425855299185 .00561603354627333 .
0513656124575817 -.000406099177957997 .00563157448919315 .0511679413019566 -.000
476405371477383 .00566734798993659 .0509983075254294 -.000606587353639454 .00573
212945763993 .0508753050005579 -.0007853298066985 .00582661359113165 .0508219345
509772 -.000982121824666525 .00593899811047704 .0508419418857504 -.0011640578754
59918 .00605687524000741 .0509270458373546 -.001318119522159542 .006167247540540
92 .0510732528093246 -.001438856622994656 .00624755416103959 .0512714539920281 -
.00151564854406299 .00627434128056688 .05148072 -.001539480659447725 41 1 208 H?
.00627434128056688 .05148072 -.001539480659447725 204 80 209 4 0 .02622441267026
805 2.42327310378557 -.01121764451302244 5.9563210800393 .0262359949015561 2.405
25846893469 -.01142968235465024 5.63249416797993 .02626532721369475 2.3542963102
35885 -.0116176728750836 5.29899569389793 .026301054757521 2.274144003772385 -.0
117676413399323 4.95534907308195 .0263278158449424 2.17217533773757 -.0118586486
3011816 4.62093219900374 .02633310795127355 2.06489314838493 -.01187528453160062
 4.29972649876327 .02631677171204705 1.96449852734499 -.01182260808259012 3.9768
34632654945 .0262854029912444 1.875941801528645 -.01170730397122384 3.6401137429
6969 .02625000453048495 1.80677436126472 -.0115333996819661 3.29668620668295 .02
622709973704745 1.769610509070545 -.01131965817193364 2.96639808505176 .02622783
315092915 1.770736443832965 -.01110253697060412 2.64819608043284 .02624952739632
155 1.805952889442545 -.01090486581497904 2.322560395473095 .02628363762697645 1
.871993034285645 -.01073523203845188 1.981751023802185 .02631690645678045 1.9650
08274365625 -.01061222951358038 1.640736365235435 .02633347680590605 2.071822268
180005 -.01055885906399966 1.314200051223712 .02632711698255755 2.17645653100536
 -.01057886639877286 .994326640753853 .02630206321720885 2.271364038804895 -.010
66397035037706 .664925609101298 .0262668465514903 2.351388954899805 -.0108101773
2234704 .3224356831796105 .0262356949385805 2.405737718967155 -.0110083785050505
 262677691698486e-29 .02622441267026805 2.423273103785575 -.01121764451302244 16
 211 466 0 ?214 215 205 206 0 0 1 38 203 843 0 216 206 198 0 +172 179 217 218 21
8 219 16 216 465 0 ?220 221 222 203 215 222 1 32 198 841 0 221 203 194 0 -.00762
 .05148072 1040834085586084e-32 .965925826289067 -2873468630843205e-32 -.2588190
451025255 -.258819045102525 -1072393092426202e-31 -.965925826289067 .00255158966
2725195 6604e-7 51 172 796 0 223 157 21 224 +.01976464885234565 .05148072 .02103
51488523455 -.5 -961481343191779e-31 -.866025403784436 6604e-7 .866025403784436
 -555111512312583e-31 -.5 40 20 217 0 1 20 4019150044392765e-20 .353390392554101
 ??.00722436569387074 .05148072 -.002006058719433115 .00718829342845273 .0516927
578416278 -.00199860639598769 .00708704469453751 .0518807483620611 -.00197402044
8825035 .00693070280245936 .0520307168269098 -.001925011029439215 .0067383323954
5178 .0521217241170957 -.001844846965222375 .00654586151119044 .0521383600185782
 -.001739834646412675 .00637689336096906 .0520856835695677 -.00162341737516795 .
00623818788616211 .0519703794582014 -.001507114253150985 .00613733182028447 .051
7964751689437 -.001408010354670386 .00608604055317356 .0515827336589112 -.001351
949150483084 .00608756373171989 .0513656124575817 -.00135367543143094 .006136175
67984691 .0511679413019566 -.001406791909602204 .00623224743135406 .050998307525
4294 -.00150164606289785 .00637772105460913 .0508753050005579 -.0016240508341300
6 .00655794272345153 .0508219345509772 -.00174723565420651 .00674623859759344 .0
508419418857504 -.00184860463638511 .00692535400964173 .0509270458373546 -.00192
3087371410665 .00708130777619544 .0510732528093246 -.001972462617646405 .0071892
5131017353 .0512714539920281 -.00199881306184765 .00722436569387074 .05148072 -.
002006058719433115 41 1 218 H?.00722436569387074 .05148072 -.002006058719433115
 204 80 219 4 0 .0262244126702681 2.946871879383875 -.01121764451302244 5.956321
0800393 .02623599490155615 2.92885724453299 -.01142968235465024 5.63249416797993
 .0262653272136948 2.877895085834185 -.0116176728750836 5.29899569389793 .026301
05475752105 2.797742779370685 -.0117676413399323 4.95534907308196 .0263278158449
4245 2.695774113335875 -.01185864863011816 4.62093219900375 .0263331079512736 2.
58849192398323 -.01187528453160062 4.299726498763275 .0263167717120471 2.4880973
0294329 -.01182260808259012 3.97683463265494 .02628540299124445 2.39954057712694
5 -.01170730397122384 3.64011374296969 .026250004530485 2.33037313686302 -.01153
33996819661 3.29668620668295 .0262270997370475 2.293209284668845 -.0113196581719
3364 2.96639808505176 .02622783315092925 2.294335219431265 -.01110253697060412 2
.64819608043284 .0262495273963216 2.329551665040845 -.01090486581497904 2.322560
395473105 .0262836376269765 2.39559180988394 -.01073523203845188 1.9817510238021
85 .0263169064567805 2.488607049963925 -.01061222951358038 1.640736365235435 .02
63334768059061 2.595421043778305 -.01055885906399966 1.314200051223714 .02632711
69825576 2.70005530660366 -.01057886639877286 .994326640753856 .0263020632172089
5 2.794962814403195 -.01066397035037706 .664925609101298 .02626684655149035 2.87
4987730498105 -.01081017732234704 .3224356831796115 .0262356949385806 2.92933649
4565455 -.0110083785050505 656694229246217e-30 .0262244126702681 2.9468718793838
75 -.01121764451302244 14 223 642 225 ?190 169 226 5 172 +0 0 190 169 27 141 224
 19 227 227 172 38 19 338 0 228 150 7 0 +20 172 229 230 230 231 141 227 203 224
 224 172 16 228 536 0 ?232 233 156 19 0 0 1 40 20 229 0 1 20 3776697368035875e-2
0 .3405272929985915 ??.00592989666045743 .05148072 -.004248144854129515 .0058954
4105076732 .0516980205788063 -.004234274486924705 .00579699563282567 .0518908039
824399 -.00419283186847068 .00564663789065051 .0520387841753617 -.00412420004187
2815 .00546311670259227 .0521243883909138 -.004031257674890505 .0052709279877248
3 .05213705429184 -.003922377427166525 .00509229049974709 .0520768361867419 -.00
3809707164905355 .00494381558040733 .0519504640497754 -.00370691528798939 .00483
929382164709 .0517701899081676 -.003629167556020245 .00478953423115641 .05155675
52280119 -.00359049405115851 .00479870148691412 .0513365232636255 -.003597701863
69847 .00486484704047806 .0511334629723447 -.00364860468804686 .0049831570898683
1 .0509678725643538 -.003735002472193055 .00514421385400838 .050858847495352 -.0
0384365281461736 .00533078417731275 .050820330444629 -.003957609747961305 .00552
124516559458 .0508557275681888 -.004061823746183465 .00569497064835588 .05096014
82426752 -.00414698034662676 .00583200132217524 .0511235615369247 -.004207878887
051875 .00591318123415471 .0513283412758547 -.004241456554128355 .00592989666045
743 .05148072 -.004248144854129515 41 1 230 H?.00592989666045743 .05148072 -.004
248144854129515 204 80 231 4 3.520239923184865 .03598672 6.28318530717958 .02881
33507370947 3.528363883767885 .0362040205788062 5.94789441165958 .02881856645158
06 3.551726811896935 .03639680398243985 5.61321460040519 .02883189880017085 3.58
787946029356 .0365447841753617 5.27654601812966 .0288476407659166 3.632877601843
22 .0366303883909137 4.93796946946731 .02885891090905115 3.68119546414872 .03664
305429183995 4.6013686215077 .02886071220598555 3.72739405714289 .03658283618674
185 4.26750192449105 .0288524556406052 3.766894674429955 .03645646404977535 3.93
294194286537 .0288376727235632 3.795387996925135 .0362761899081676 3.59532704843
2895 .0288226020919714 3.80917224480616 .0360627552280119 3.256983668789115 .028
8139896495531 3.806621604590925 .0358425232636254 2.921471790224925 .02881564817
043955 3.78836576183239 .0356394629723446 2.58790400681153 .02882665853266765 3.
75632182365548 .03547387256435375 2.25238796998065 .02884232618387385 3.71382549
175954 .03536484749535195 1.91406264222295 .02885589175847315 3.666003805308025
 .03532633044462895 1.57642049819494 .02886129619603415 3.618512872161365 .03536
172756818875 1.241854364092064 .0288563176717836 3.57619256548231 .0354661482426
751 .907988102392099 .02884320270968675 3.5433928773622 .0356295615369246 .57141
3356912935 .0288274270558386 3.52417777701305 .0358343412758546 .232835068073150
5 .02881591621253695 3.520239923184865 .03598672 6.28318530717958 .0288133507370
947 17 232 0 234 232 232 0 235 228 0 0 +16 233 307 0 ?236 146 228 148 0 0 1 16 1
56 538 0 ?237 228 238 150 0 0 1 17 237 0 239 237 237 0 240 156 0 0 +16 238 545 0
 ?241 156 141 242 0 0 1 17 241 0 243 244 43 95 82 238 0 0 +16 141 544 0 ?42 238
 127 245 0 0 1 30 242 818 0 238 245 246 0 -.00762 .053321628095412 0 .8660254037
84442 .5 -394308293631802e-30 30 245 819 0 141 142 242 0 -.00762 .05332162809541
2 197458368642064e-48 -394308293631802e-30 -.5 -.866025403784442 30 246 269 0 14
6 242 148 0 +.003048 .015494 0 0 1 0 16 146 316 0 ?247 140 233 246 0 0 1 30 148
 265 0 233 246 147 0 +.00762 .015494 -.004572 0 1 0 17 247 0 248 37 37 47 249 14
6 0 0 +15 248 325 0 37 15 0 17 37 0 248 247 247 11 33 29 0 249 -17 249 0 243 35
 244 11 247 146 0 0 -15 243 419 0 250 17 0 17 35 0 243 251 249 53 30 36 0 0 +17
 244 0 243 249 241 47 97 132 0 247 +17 97 0 32 252 33 95 244 132 0 253 -16 132 4
75 0 ?244 36 124 254 0 0 1 16 36 472 0 ?35 255 132 256 0 0 1 30 254 865 0 132 13
4 256 0 +.025401 .05214112 -809583152922405e-32 -1 493038065763132e-46 455307998
944044e-30 30 134 872 0 124 257 254 0 +.00762 .00709856633164335 197458368642064
e-48 -3242640141498185e-31 -.701990742463282 -.712186069434 30 256 863 0 36 254
 258 0 -.025401 .05082032 -809583152922405e-32 -1 493038065763132e-46 4553079989
44044e-30 30 258 861 0 255 256 259 0 +.0055753 .04026307548697755 93096826544088
7e-33 246519032881566e-46 -1 0 16 255 496 0 ?251 260 36 258 0 0 1 30 259 859 0 2
60 258 261 0 +.00762 .02163300007851225 0 .5 .866025403784438 -227653999472023e-
30 16 260 488 0 ?94 262 255 259 0 0 1 30 261 858 0 262 259 186 0 +.00762 .0127 0
 1 -493038065763132e-46 -455307998944044e-30 16 262 487 0 ?91 263 260 261 0 0 1
 30 186 856 0 263 261 177 0 +.00127 0 289120579329468e-32 -246519032881566e-46 1
 0 16 263 486 0 ?88 185 262 186 0 0 1 17 88 0 264 265 129 86 250 263 0 266 +16 1
85 485 0 ?85 184 263 177 0 0 1 17 85 0 121 122 100 83 128 185 0 129 +16 184 474
 0 ?253 176 185 175 176 176 1 17 253 0 267 79 210 95 252 184 0 268 +15 267 690 0
 253 269 0 17 79 0 267 210 253 77 268 270 0 271 +17 210 0 267 253 79 71 272 205
 0 252 +17 252 0 32 273 97 71 253 184 0 0 -17 268 0 274 82 275 95 79 270 0 241 -
15 274 759 0 118 171 0 17 82 0 274 118 268 80 241 238 0 42 -17 275 0 274 268 276
 77 76 277 0 0 -16 270 546 0 ?79 278 277 199 279 277 1 16 278 497 0 ?280 281 270
 282 0 0 1 16 277 547 0 ?76 270 279 199 270 279 1 31 255 199 829 0 279 194 282 0
 +.00762 .05214112 0 246519032881566e-46 -1 0 455307998944044e-30 11102230246251
56e-31 1 .0020447 16 279 548 0 ?283 277 197 199 277 270 1 17 283 0 284 285 286 1
16 276 279 0 287 +16 197 460 0 ?285 279 288 194 288 288 1 17 285 0 284 286 283 5
9 287 197 0 289 +16 288 462 0 ?290 197 221 194 197 197 1 17 290 0 291 112 58 113
 292 288 0 293 +16 221 461 0 ?294 288 216 198 0 0 1 17 294 0 226 295 289 56 61 2
21 0 292 +15 226 644 0 289 223 234 17 295 0 226 67 294 62 58 222 0 0 -17 289 0 2
26 294 296 59 286 215 0 0 -17 61 0 297 287 292 59 294 221 0 285 -17 292 0 297 61
 115 56 290 288 0 0 -15 297 641 0 28 190 0 17 115 0 297 292 28 113 298 299 0 290
 -17 28 0 297 115 46 51 300 10 0 298 +17 298 0 40 236 293 51 115 299 0 301 +16 2
99 463 0 ?298 302 303 304 0 0 1 16 302 498 0 ?293 305 299 306 0 0 1 16 303 459 0
 ?307 299 0 308 0 0 1 30 304 881 0 299 308 306 0 +.00762 .05082032 .017781 -3946
78933778718e-29 -1110223024625156e-31 -1 30 308 883 0 303 0 304 0 -.00762 .05214
112 .017781 -394678933778718e-29 -1110223024625156e-31 -1 30 306 879 0 302 304 3
09 0 -.00762 .04026307548697755 -.0020447 246519032881566e-46 -1 0 30 309 877 0
 305 306 310 0 +.00762 .02163300007851225 197458368642064e-48 -227653999472023e-
30 -.866025403784438 -.5 16 305 491 0 ?109 311 302 309 0 0 1 30 310 876 0 311 30
9 257 0 +.00762 .0127 197458368642064e-48 -455307998944044e-30 -1110223024625156
e-31 -1 16 311 492 0 ?106 133 305 310 0 0 1 30 257 874 0 133 310 134 0 -.00762 0
 -.00635 -246519032881566e-46 1 0 16 133 493 0 ?103 124 311 257 0 0 1 17 103 0 2
64 129 265 101 131 133 0 122 +15 264 727 0 88 192 0 17 129 0 264 88 103 83 122 1
30 0 250 -17 265 0 264 103 88 104 266 312 0 131 -17 131 0 40 313 123 104 103 133
 0 0 -17 313 0 40 314 131 107 106 311 0 0 -17 314 0 40 293 313 110 109 305 0 0 -
17 106 0 315 266 316 104 313 311 0 265 +15 315 693 0 91 170 0 17 266 0 315 91 10
6 86 265 312 0 317 +17 316 0 315 106 91 107 318 281 0 313 -17 91 0 315 316 266 8
9 317 262 0 318 +17 318 0 319 94 109 89 316 281 0 320 +16 281 499 0 ?318 312 278
 321 0 0 1 16 312 525 0 ?266 130 281 322 0 0 1 31 321 827 0 281 282 322 0 -.0076
2 .0127 0 246519032881566e-46 -1 0 455307998944044e-30 1110223024625156e-31 1 .0
0515747 31 282 828 0 278 199 321 0 +.00762 .01809147579227615 0 246519032881566e
-46 -1 0 455307998944044e-30 1110223024625156e-31 1 .0020447 31 322 826 0 312 32
1 323 0 -.00762 .0127 0 246519032881566e-46 -1 0 455307998944044e-30 11102230246
25156e-31 1 .00635 31 323 823 0 130 322 142 0 +.00762 .000839470000000016 0 2465
19032881566e-46 -1 0 455307998944044e-30 1110223024625156e-31 1 .00635 16 130 52
4 0 ?122 127 312 323 0 0 1 31 142 822 0 127 323 245 0 -.00762 0 0 24651903288156
6e-46 -1 0 455307998944044e-30 1110223024625156e-31 1 .007201662 15 319 718 0 94
 324 0 17 94 0 319 280 318 92 320 260 0 325 +17 109 0 319 318 280 107 314 305 0
 316 +17 320 0 243 317 251 89 94 260 0 0 -17 317 0 243 250 320 86 91 262 0 0 -17
 251 0 243 320 35 92 55 255 0 0 +17 55 0 291 70 325 53 251 255 0 34 -15 291 675
 0 70 326 0 17 70 0 291 64 55 68 34 176 0 273 +17 325 0 291 55 112 92 280 278 0
 251 -17 34 0 32 30 273 53 70 176 0 35 -15 32 652 0 33 165 0 17 273 0 32 34 252
 68 73 183 0 327 +17 73 0 328 272 327 71 273 183 0 210 -16 183 470 0 ?273 213 17
6 178 0 0 1 17 327 0 328 73 214 68 64 212 0 0 -15 328 648 0 329 169 239 17 214 0
 328 327 329 62 67 211 0 295 +17 64 0 291 58 70 62 327 212 0 214 +16 212 471 0 ?
64 205 213 187 205 213 1 16 213 468 0 ?271 212 183 187 212 205 1 17 271 0 330 76
 220 77 329 213 0 272 +15 330 685 0 271 331 0 17 76 0 330 220 271 74 275 277 0 2
86 +17 220 0 330 271 76 65 296 216 0 329 +17 329 0 328 214 272 65 271 213 0 0 -1
7 272 0 328 329 73 77 210 205 0 275 -17 296 0 226 289 67 74 220 216 0 276 -17 67
 0 226 296 295 65 214 211 0 220 -17 276 0 274 275 118 74 283 279 0 0 -17 118 0 2
74 276 82 116 42 141 0 283 -17 42 0 40 38 307 80 118 141 0 43 +17 307 0 40 42 23
6 116 46 303 0 0 +17 43 0 243 241 45 80 38 44 0 0 -17 45 0 243 43 128 31 137 140
 0 136 +17 128 0 243 45 250 98 85 185 0 137 -17 250 0 243 128 317 83 88 263 0 0
 -17 236 0 40 307 298 39 301 233 0 0 +17 46 0 297 28 287 39 307 303 0 300 -17 28
7 0 297 46 61 116 285 197 0 307 -17 300 0 332 301 301 39 28 10 0 236 -15 332 342
 0 300 161 0 17 301 0 332 300 300 51 236 233 0 0 -14 161 344 333 ?138 15 332 5 2
0 -334 15 138 15 27 81 1 333 1361 335 161 336 0 225 337 338 14 138 43 337 ?143 1
61 135 5 163 +0 0 143 161 27 14 15 327 339 ?161 0 248 5 20 -161 340 161 0 27 14
 334 339 341 ?0 340 342 5 20 -340 161 0 340 27 13 27 978 0 0 0 0 0 0 9 15 81 1 3
41 1364 335 334 343 0 339 344 345 14 340 333 344 ?334 326 346 5 20 -15 334 334 3
26 27 15 342 337 0 235 334 0 17 235 0 342 235 235 0 232 228 0 0 -81 1 344 1365 3
35 340 347 0 341 348 349 14 326 671 348 ?340 190 291 5 350 +351 269 340 190 27 1
5 346 331 0 240 340 0 17 240 0 346 240 240 0 237 156 0 0 -81 1 348 1366 335 326
 352 0 344 353 354 14 190 639 353 ?326 223 297 5 21 +0 0 326 223 27 51 350 780 0
 326 193 355 0 +.00762 .04026307548697755 0 246519032881566e-46 -1 0 .0020447 45
5307998944044e-30 1110223024625156e-31 1 14 351 676 356 ?331 17 284 5 350 +331 3
26 331 17 27 14 269 686 357 ?324 171 267 5 350 +326 331 324 171 27 81 1 357 1369
 335 269 358 0 356 359 360 14 324 716 359 ?126 269 319 5 355 -0 0 126 269 27 14
 171 757 361 ?269 331 274 5 166 +0 0 269 331 27 14 331 681 362 ?171 351 330 5 35
0 +269 351 171 351 27 81 1 362 1372 335 331 363 0 361 364 365 80 255 1 335 366 3
67 9000 1 1 1 1 1 1 1 1 0 FFFFTFTFFFFFFF1 81 1 363 1295 368 331 0 362 369 370 37
1 81 1 361 1371 335 171 370 0 359 362 372 81 1 364 1373 335 126 373 0 362 374 37
5 82 255 1 365 -670171005 14 126 731 364 ?192 324 121 5 162 -0 0 192 324 27 81 1
 373 1299 368 126 0 364 376 377 378 81 1 374 1374 335 192 377 0 364 379 380 82 1
 375 -649854845 14 192 725 374 ?170 126 264 5 188 -0 0 170 126 27 81 1 377 1300
 368 192 0 374 373 381 382 81 1 379 1375 335 170 381 0 374 383 384 82 1 380 -667
746173 14 170 691 379 ?165 192 315 5 193 -0 0 165 192 27 81 1 381 1301 368 170 0
 379 377 385 386 81 1 383 1376 335 169 387 0 379 388 389 82 1 384 -670236541 14
 169 646 383 ?223 165 328 5 157 +0 0 223 165 27 81 1 387 1303 368 169 0 383 385
 390 391 81 1 388 1377 335 143 392 0 383 393 394 82 1 389 -583139197 14 143 382
 388 ?17 138 40 5 18 -0 0 17 138 27 81 1 392 1292 368 143 0 388 395 396 397 81 1
 393 1378 335 17 396 0 388 0 398 82 1 394 -578092925 14 17 421 393 ?351 143 243
 5 6 -0 0 351 143 27 81 1 396 1293 368 17 0 393 392 369 399 82 1 398 -573505405
 80 1 368 0 400 8001 0 0 0 0 3 5 0 0 0 FFFFTFTFFFFFFF2 81 1 369 1294 368 351 0 3
56 396 363 401 83 255 3 399 .792156862745098 .819607843137255 .933333333333333 8
1 1 356 1368 335 351 369 0 353 357 402 83 3 401 .792156862745098 .81960784313725
5 .933333333333333 81 1 353 1367 335 190 403 0 348 356 404 82 1 402 -670564221 8
1 1 403 1305 368 190 0 353 390 352 405 82 1 404 -582287229 81 1 390 1304 368 223
 0 225 387 403 406 81 1 352 1306 368 326 0 348 403 347 407 83 3 405 .79215686274
5098 .819607843137255 .933333333333333 81 1 347 1307 368 340 0 344 352 343 408 8
3 3 407 .792156862745098 .819607843137255 .933333333333333 81 1 343 1308 368 334
 0 341 347 0 409 83 3 408 .792156862745098 .819607843137255 .933333333333333 83
 3 409 .792156862745098 .819607843137255 .933333333333333 81 1 225 1360 335 223
 390 0 168 333 410 83 3 406 .792156862745098 .819607843137255 .933333333333333 8
1 1 168 1359 335 165 385 0 0 225 411 82 1 410 -582680445 81 1 385 1302 368 165 0
 168 381 387 412 82 1 411 -583597949 83 3 412 .792156862745098 .819607843137255
 .933333333333333 79 255 15 400 SDL/TYSA_COLOUR81 1 395 1291 368 138 0 337 336 3
92 413 83 3 397 .792156862745098 .819607843137255 .933333333333333 81 1 337 1362
 335 138 395 0 333 339 414 81 1 336 1290 368 161 0 333 415 395 416 83 3 413 .792
156862745098 .819607843137255 .933333333333333 81 1 415 1289 368 15 0 339 0 336
 417 83 3 416 .792156862745098 .819607843137255 .933333333333333 81 1 339 1363 3
35 15 415 0 337 341 418 83 3 417 .792156862745098 .819607843137255 .933333333333
333 82 1 418 -590086013 82 1 414 1821966467 50 18 87 0 143 163 6 0 +.00762 .0558
8 0 -1 0 0 0 0 1 50 163 65 0 138 20 18 0 +0 0 0 0 -1 0 0 0 -1 83 3 391 .79215686
2745098 .819607843137255 .933333333333333 83 3 386 .792156862745098 .81960784313
7255 .933333333333333 50 193 784 0 170 188 350 0 +.00762 .0127 0 246519032881566
e-46 -1 0 455307998944044e-30 1110223024625156e-31 1 83 3 382 .792156862745098 .
819607843137255 .933333333333333 81 1 376 1298 368 324 0 359 358 373 419 83 3 37
8 .792156862745098 .819607843137255 .933333333333333 81 1 359 1370 335 324 376 0
 357 361 420 81 1 358 1297 368 269 0 357 370 376 421 83 3 419 .792156862745098 .
819607843137255 .933333333333333 81 1 370 1296 368 171 0 361 363 358 422 83 3 42
1 .792156862745098 .819607843137255 .933333333333333 83 3 422 .792156862745098 .
819607843137255 .933333333333333 82 1 420 -650248061 52 162 777 0 126 355 20 0 -
.00762 .000839470000000016 0 246519032881566e-46 -1 0 .00635 .712186069434 .7019
90742463282 455307998944044e-30 1110223024625156e-31 1 52 355 779 0 324 350 162
 0 -.00762 .01809147579227615 0 246519032881566e-46 -1 0 .0020447 .5 .8660254037
84438 455307998944044e-30 1110223024625156e-31 1 82 1 372 -671285117 83 3 371 .7
92156862745098 .819607843137255 .933333333333333 79 14 367 SWEntUnchanged82 1 36
0 -670367613 15 284 680 0 286 351 0 17 286 0 284 283 285 74 289 215 0 296 +16 21
5 464 0 ?286 222 211 203 222 216 1 16 222 467 0 ?58 216 215 203 216 215 1 17 58
 0 291 290 64 56 295 222 0 294 +82 1 354 -670695293 82 1 349 -589561725 82 1 345
 -589037437 82 1 338 -588578685 15 239 649 0 237 169 0 17 33 0 32 97 30 47 37 29
 0 244 +17 112 0 291 325 290 110 293 302 0 280 -17 280 0 319 109 94 110 325 278
 0 314 +17 293 0 40 298 314 113 112 302 0 0 +15 234 645 0 232 223 0 40 20 200 0
 1 20 4019150044392865e-20 .3533903925541025 ??.0082804 .05148072 -.001935114965
576985 .00824543434005323 .0516927578416278 -.001946697196865035 .00814545739080
031 .0518807483620611 -.00197602950900368 .00798555663089199 .0520307168269098 -
.002011757052829915 .00777887693937866 .0521217241170957 -.00203851814025131 .00
755968610471463 .0521383600185782 -.002043810246582475 .00735514675857009 .05208
56835695677 -.00202747400735597 .00717687273273481 .0519703794582014 -.001996105
286553315 .00703997686831871 .0517964751689437 -.00196070682579386 .006967526725
91472 .0515827336589112 -.00193780203235636 .00696970897770427 .0513656124575817
 -.001938535446238105 .00703836639879535 .0511679413019566 -.001960229691630475
 .00716899405283444 .0509983075254294 -.00199433992228539 .00735618029176999 .05
08753050005579 -.002027608752089375 .00757384924533817 .0508219345509772 -.00204
4179101214995 .00778760274686216 .0508419418857504 -.00203781927786648 .00797996
261141808 .0509270458373546 -.00201276551251781 .00813971015818732 .051073252809
3246 -.001977548846799215 .00824636722288724 .0512714539920281 -.001946397233889
455 .0082804 .05148072 -.001935114965576985 41 1 201 H?.0082804 .05148072 -.0019
35114965576985 204 80 202 4 0 .01971611496557705 3.470470654982175 -.01121764451
302244 5.9563210800393 .0197276971968651 3.45245602013129 -.01142968235465024 5.
63249416797993 .01975702950900375 3.401493861432485 -.0116176728750836 5.2989956
9389792 .01979275705283 3.321341554968985 -.0117676413399323 4.95534907308196 .0
198195181402514 3.219372888934175 -.01185864863011816 4.62093219900375 .01982481
024658255 3.11209069958153 -.01187528453160062 4.29972649876327 .019808474007356
05 3.01169607854159 -.01182260808259012 3.976834632654945 .0197771052865534 2.92
3139352725245 -.01170730397122384 3.640113742969695 .01974170682579395 2.8539719
1246132 -.0115333996819661 3.29668620668295 .0197188020323564 2.816808060267145
 -.01131965817193364 2.96639808505176 .01971953544623815 2.817933995029565 -.011
10253697060412 2.64819608043284 .01974122969163055 2.853150440639145 -.010904865
81497904 2.322560395473095 .01977533992228545 2.919190585482245 -.01073523203845
188 1.981751023802185 .01980860875208945 3.012205825562225 -.01061222951358038 1
.640736365235435 .01982517910121505 3.119019819376605 -.01055885906399966 1.3142
0005122371 .01981881927786655 3.22365408220196 -.01057886639877286 .994326640753
855 .01979376551251785 3.318561590001495 -.01066397035037706 .664925609101297 .0
197585488467993 3.398586506096405 -.01081017732234704 .3224356831796095 .0197273
972338895 3.452935270163755 -.0110083785050505 0 .01971611496557705 3.4704706549
82175 -.01121764451302244 141 191 7 423 423 21 141 423 194 191 191 21 141 173 15
0 424 424 157 141 424 187 173 173 157 141 164 149 425 426 20 141 425 7 427 164 2
0 141 426 150 164 427 20 141 427 19 426 425 20 40 20 158 0 1 20 3776697368036085
e-20 .340527292998593 ??.00403225514587046 .05148072 -.00283394969286101 .004009
350896178345 .0516980205788063 -.00280470979765677 .003944815972581715 .05189080
39824399 -.002719596728305415 .003848918261501285 .0520387841753617 -.0025849809
51875955 .00373645543400131 .0521243883909138 -.0024127299069523 .00362445524846
7405 .05213705429184 -.00222234248901927 .00352608577694103 .0520768361867419 -.
00203544843566117 .00344889866342594 .0519504640497754 -.001872190599279385 .003
397254031075915 .0517701899081677 -.001752598208927365 .00337349771405994 .05155
67552280119 -.001694226176018375 .00337783288415913 .0513365232636255 -.00170505
1952662555 .00340966520171869 .0511334629723447 -.0017822078684546 .003468925817
940535 .0509678725643538 -.00191618556905102 .003554079895925005 .05085884749535
2 -.002090807907790385 .00365867606882689 .050820330444629 -.00228278266865579 .
003771513123997765 .0508557275681888 -.00246826513268704 .00387938550513212 .050
9601482426752 -.00262887565335151 .00396760827954483 .0511235615369247 -.0027501
30673322735 .004021123312057795 .0513283412758547 -.002819799742000515 .00403225
514587046 .05148072 -.00283394969286101 41 1 159 H?.00403225514587046 .05148072
 -.00283394969286101 204 80 160 4 4.043838698783165 .03598672 6.28318530717958 .
02881335073709465 4.051962659366185 .0362040205788062 5.94789441165959 .02881856
64515805 4.075325587495235 .03639680398243985 5.61321460040519 .0288318988001708
 4.11147823589186 .0365447841753617 5.27654601812967 .0288476407659165 4.1564763
7744152 .0366303883909137 4.93796946946732 .0288589109090511 4.20479423974702 .0
3664305429183995 4.6013686215077 .0288607122059855 4.25099283274119 .03658283618
674185 4.267501924491055 .02885245564060515 4.290493450028255 .03645646404977535
 3.93294194286537 .0288376727235631 4.318986772523435 .0362761899081676 3.595327
048432905 .02882260209197135 4.33277102040446 .0360627552280119 3.25698366878912
 .02881398964955305 4.330220380189225 .0358425232636254 2.921471790224935 .02881
56481704395 4.31196453743069 .0356394629723446 2.58790400681154 .028826658532667
6 4.279920599253775 .03547387256435375 2.252387969980645 .0288423261838738 4.237
42426735784 .03536484749535195 1.914062642222945 .02885589175847305 4.1896025809
06325 .03532633044462895 1.576420498194945 .0288612961960341 4.142111647759665 .
03536172756818875 1.241854364092064 .02885631767178355 4.09979134108061 .0354661
482426751 .907988102392094 .0288432027096867 4.0669916529605 .0356295615369246 .
571413356912938 .02882742705583855 4.04777655261135 .03583434127585465 .23283506
80731405 .02881591621253685 4.043838698783165 .03598672 6.28318530717958 .028813
35073709465 19 16 95 0 1 0 9 5 S0 40 11 22 0 1 11 3775768106184905e-20 .34048456
5029612 ??.00762 .05214112 -.004572 .00740268537880176 .0521043404898923 -.00456
683242033397 .00720988902998755 .0519983464601771 -.00455356925853505 .007061927
41873337 .0518338250184271 -.00453781213736735 .0069763276371888 .05162841580005
22 -.00452646328708773 .00696366859728279 .0514075267639239 -.00452464507887716
 .00702387576816474 .0511965298168148 -.00453297031759737 .00715023122451755 .05
10165589745124 -.00454780180939998 .00733051770398558 .0508871476284275 -.004562
82631713001 .0075439369282686 .0508247149930688 -.00457136723630018 .00762 .0508
2032 -.004572 41 1 23 L?.00762 .05214112 -.004572 41 1 24 L?.00762 .05082032 -.0
04572 204 44 25 4 3.141592653589795 .03664712 4.71238898038472 .022353 3.1891422
0143109 .0366103404898922 4.37707556742487 .02234783242033405 3.231413944663275
 .03650434646017705 4.04236613752908 .0223345692585351 3.263960934650555 .036339
82501842705 3.70572588610315 .0223188121373674 3.28284765929383 .036134415800052
2 3.36714625182855 .0223074632870878 3.285644892768435 .0359135267639239 3.03053
281518634 .0223056450788772 3.272350823296195 .03570252981681475 2.6967339056919
35 .02231397031759745 3.244523387325385 .0355225589745123 2.362198884309775 .022
32880180940005 3.20495137323333 .0353931476284274 2.02455159151722 .022343826317
13005 3.15823013848975 .03533071499306875 1.686229786260095 .02235236723630025 3
.14159265358981 .03532632 1.57079632679499 .022353 74 4 CI16 index_map_offset0 0
 1 dCCZ20 14 3 0 0 393 2 343 0 0 0 0 0 0 0 0 0 0 0 0 0 0 0 0 0 80 2 12 428 429 8
004 0 0 0 0 3 5 0 0 0 FFTFFFFFFFFFFF2 3 83 1 13 1 79 16 429 SDL/TYSA_DENSITY1 0
 
