**ABCDEFGHIJKLMNOPQRSTUVWXYZabcdefghijklmnopqrstuvwxyz**************************
**PARASOLID !"#$%&'()*+,-./:;<=>?@[\]^_`{|}~0123456789**************************
**PART1;
MC=AMD64;
MC_MODEL=Intel64 Family 6 Model 142 Stepping 9, GenuineIntel;
MC_ID=unknown;
OS=Windows_NT;
OS_RELEASE=unknown;
FRU=Parasolid Version 30.0, build 298, 12-15-2017;
APPL=SOLIDWORKS 2018-2018134;
SITE=;
USER=unknown;
FORMAT=text;
GUISE=transmit;
KEY=Pintle_V2.1 Flow area;
FILE=Pintle_V2.1 Flow area.x_t;
DATE=Sun Feb 24 18:30:05 2019;
**PART2;
SCH=SCH_3000298_30000;
USFLD_SIZE=0;
**PART3;
**END_OF_HEADER*****************************************************************
T51 : TRANSMIT FILE created by modeller version 300029823 SCH_3000298_30000_1300
6205 0 12 33 CCCCCCI4 mesh1006 0 I8 polyline1008 0 CCCCCCCDI5 owner1040 0 CCCCCC
I13 boundary_mesh1006 0 I17 boundary_polyline1008 0 CCCA16 index_map_offset0 0 1
 dA9 index_map82 0 A17 node_id_index_map82 0 A20 schema_embedding_map82 0 A5 chi
ld12 0 A14 lowest_node_id0 0 1 dZ1 1507 2 3 0 0 0 0 0 0 1e3 1e-8 0 4 0 1 0 1 1 5
 6 7 8 0 0 9 10 11 0 0 0 0 0 0 81 255 2 2 311 12 1 0 0 0 0 13 0 70 11 CI9 list_t
ype0 0 1 uI10 notransmit0 0 1 lCCCDCCDI12 finger_index0 0 1 dI12 finger_block101
2 0 CZ3 0 4 T1 0 0 2 20 1 14 14 13 255 5 1033 0 1 0 15 0 0 16 0 50 255 6 88 0 17
 18 0 0 +344705394972434e-29 .05588 -.00762000000000339 1 -607013097735156e-28 7
22634640161274e-29 722634640160906e-29 -607013097735156e-28 -1 38 12 CCCCCCCCCCC
A17 intersection_data204 0 Z7 389 0 10 19 0 0 +20 21 22 23 24 25 29 255 8 360 0
 11 26 0 3117898842857395e-30 .05082032 -.00457200000000308 19 8 CCCCCCCA5 owner
12 0 Z9 1035 0 1 16 0 27 V0 16 255 10 387 0 ?28 0 29 7 0 0 1 18 255 11 358 0 30
 0 31 8 ?1 17 255 30 0 32 33 34 11 35 36 0 37 -18 31 63 0 38 11 39 26 ?1 17 38 0
 40 41 42 31 43 44 0 45 +18 39 625 0 46 31 47 48 ?1 29 26 72 0 31 48 8 0 0 0 29
 48 944 0 39 49 26 .00457200000000316 .05201158 -325434124093249e-29 29 49 948 0
 47 50 48 3135289201021715e-30 .05201158 -.00457200000000316 18 47 658 0 33 39 5
1 49 ?1 29 50 958 0 51 52 49 .00457200000000308 .05082032 -3182350216679455e-30
 18 51 654 0 28 47 53 50 ?1 29 52 961 0 53 54 50 3044322115730185e-30 .05082032
 -.00204470000000314 18 53 632 0 55 51 56 52 ?1 29 54 964 0 56 57 52 .0019750285
37016305 .05114261004881 -.000529207301524285 18 56 627 0 58 53 59 54 ?1 29 57 9
65 0 59 60 54 .00197502853701634 .0516892899511906 -.000529207301524308 18 59 62
8 0 61 56 62 57 ?1 29 60 966 0 62 63 57 .00144582123549518 .05114261004881 -.001
445821235495294 18 62 629 0 64 59 65 60 ?1 29 63 967 0 65 66 60 .001445821235495
22 .0516892899511906 -.00144582123549532 18 65 630 0 67 62 68 63 ?1 29 66 968 0
 68 69 63 .000529207301524171 .05114261004881 -.001975028537016415 18 68 633 0 7
0 65 71 66 ?1 29 69 969 0 71 72 66 .000529207301524215 .0516892899511906 -.00197
5028537016445 18 71 634 0 73 68 74 69 ?1 29 72 970 0 74 75 69 .00177076214312114
5 .05201158 -.001022350000003204 18 74 661 0 76 71 77 72 ?1 29 75 971 0 77 78 72
 .001022350000003104 .05201158 -.00177076214312125 18 77 660 0 79 74 80 75 ?1 29
 78 972 0 80 81 75 3173908732863305e-30 .0531920880954124 -328209681654812e-29 1
8 80 636 0 82 77 83 78 ?1 29 81 977 0 83 84 78 4192354404933505e-32 .00083947000
0000047 -.0063500000000001 18 83 640 0 85 80 86 81 ?1 29 84 979 0 86 87 81 76187
3249657416e-30 .0127 -.00635000000000082 18 86 641 0 88 83 89 84 ?1 29 87 980 0
 89 90 84 753255614783105e-30 .01270000000000012 -.00515747000000084 18 89 642 0
 91 86 92 87 ?1 29 90 982 0 92 93 87 1058031302697936e-30 .01809147579227645 -.0
0204470000000115 18 92 643 0 94 89 95 90 ?1 29 93 986 0 95 96 90 311702605576092
5e-30 .05201158 -.00204470000000321 18 95 638 0 97 92 98 93 ?1 29 96 987 0 98 99
 93 -2878979837151045e-33 -986076131526265e-46 -.007201662 18 98 639 0 100 95 10
1 96 ?1 29 99 996 0 101 102 96 .00635 .000839470000000047 -572458747072346e-31 1
8 101 650 0 103 98 104 99 ?1 29 102 998 0 104 105 99 .00635000000000072 .0127 -7
7715611723761e-29 18 104 649 0 106 101 107 102 ?1 29 105 999 0 107 108 102 .0051
5747000000073 .01270000000000012 -785829734617494e-30 18 107 648 0 109 104 110 1
05 ?1 29 108 1001 0 110 111 105 .002044700000001045 .01809147579227645 -11353765
1502682e-29 18 110 647 0 112 107 113 108 ?1 29 111 1003 0 113 114 108 .002044700
00000303 .05082032 -3191891195797325e-30 18 113 646 0 115 110 116 111 ?1 29 114
 1005 0 116 117 111 .0020447000000031 .05201158 -319536064274928e-29 18 116 626
 0 118 113 119 114 ?1 29 117 1007 0 119 0 114 .007201662 0 0 18 119 651 0 120 11
6 0 117 ?1 17 120 0 121 100 122 119 123 124 0 125 +15 255 121 789 0 85 126 0 17
 100 0 121 85 120 98 125 127 0 128 +17 122 0 121 120 85 101 129 130 0 123 +17 12
3 0 40 131 41 101 120 124 0 0 -16 124 550 0 ?120 132 133 134 0 0 1 17 125 0 135
 136 137 119 100 127 0 41 -15 135 406 0 125 138 0 17 136 0 135 137 125 31 41 139
 0 0 -17 137 0 135 125 136 98 45 140 0 0 -16 127 512 0 ?100 141 130 142 0 0 1 17
 41 0 40 123 38 119 136 139 0 0 +15 40 430 0 41 143 0 16 139 49 0 ?41 44 140 144
 0 0 1 16 44 423 0 ?38 29 139 145 0 0 1 16 140 403 0 ?45 139 146 147 0 0 1 30 25
5 144 67 0 139 147 145 0 +0 0 0 1 -607013097735156e-28 722634640161274e-29 30 14
7 68 0 140 148 144 0 +55064759580261e-30 -462543980474189e-30 -.00762 -722634640
160906e-29 607013097735156e-28 1 30 145 92 0 44 144 149 0 +339198919014408e-29 .
05588 -3392251757272645e-30 -607013097735161e-28 -1 607013097735152e-28 38 149 3
69 0 29 145 150 0 +20 151 152 153 154 155 16 29 367 0 ?33 10 44 149 0 0 1 38 150
 376 0 156 149 19 0 +20 157 158 159 159 160 51 255 20 254 0 161 162 163 164 -940
506093630861e-30 .015494 -940220123979429e-30 607013097735161e-28 1 -60701309773
5152e-28 .004572 -1 607013097735156e-28 -722634640161274e-29 51 151 856 0 165 16
6 157 167 +2937603158766145e-30 .0514159500000015 .0177809999999968 722634640160
906e-29 -607013097735156e-28 -1 59563e-8 1 -607013097735156e-28 722634640161274e
-29 40 255 11 152 0 1 11 3396435163282615e-20 .3399071430347855 ??31187387056322
5e-29 .05082032 -.00457200000000308 .0001962152919134605 .0508535669845022 -.004
56778760005856 .000370296071519524 .0509494139174519 -.00455697979142411 .000503
661904057844 .0510979880788462 -.00454417304758876 .000580647772219778 .05128319
73671833 -.00453497873916164 .000591899442999888 .0514825093440481 -.00453352391
075733 .000537251140347204 .051673119805963 -.00454032435099382 .000422805665956
2315 .0518354860124448 -.00455240808461485 .000259976953877928 .0519518483862209
 -.0045646025000522 674822214968811e-19 .052007744936344 -.00457150195776083 319
104883392654e-29 .05201158 -.00457200000000316 41 3 CI8 term_use0 0 1 cCZ1 153 L
?311873870563225e-29 .05082032 -.00457200000000308 41 1 154 L?319104883392654e-2
9 .05201158 -.00457200000000316 204 2 17 INTERSECTION_DATA17 Intersection data7
 uv_type0 0 1 u6 values0 1 1 fT44 155 4 4.71238898038469 .03532632 1.57079632679
4805 .022353 4.66945906460633 .0353595669845025 1.23510202418329 .02234878760005
54 4.6313080286279 .0354554139174521 .899900277221877 .02233797979142095 4.60200
266695216 .0356039880788464 .563117059180033 .0223251730475856 4.58504424948229
 .03578919736718355 .2247654114589155 .0223159787391585 4.58256276705003 .035988
50934404835 6.17120530022156 .02231452391075415 4.59460785318286 .03617911980596
325 5.83674108355551 .02232132435099065 4.61977947949297 .03634148601244505 5.50
166874808972 .02233340808461165 4.65549544167155 .0364578483862211 5.16406479837
639 .022345602500049 4.69762855344895 .0365137449363443 4.82592830413072 .022352
5019577576 4.71238898038469 .03651758 4.71238898038478 .022353 14 255 165 706 16
8 ?169 170 32 5 151 +0 0 169 170 27 52 255 166 858 0 171 0 151 0 +31022503452735
55e-30 .05201158 -3209238430557095e-30 -607013097735161e-28 -1 607013097735152e-
28 .0020447 .866025403784442 .5 -1 607013097735156e-28 -722634640161274e-29 51 1
57 854 0 169 151 172 173 +-.0121446488523425 .0514159500000024 .0210351488523423
5 .5 -829195311936109e-28 -.866025403784438 59563e-8 .866025403784438 -222182214
200958e-28 .5 141 255 167 149 174 174 151 141 174 175 167 167 151 38 175 904 0 1
76 177 178 0 +151 179 180 181 181 182 16 176 529 0 ?70 183 184 175 184 184 1 30
 177 910 0 185 186 175 0 +3759715897284775e-31 .00709856633164376 -4831204880595
41e-30 374652542762737e-28 .701990742463325 .712186069433958 32 255 178 903 0 18
3 175 187 0 -306609482413316e-29 .05141595 -3176278684513535e-30 .96592582628906
7 -4292230776775835e-29 .258819045102525 .258819045102525 -743436178318653e-28 -
.965925826289067 .002301337599650255 59563e-8 51 179 849 0 1 21 188 189 +2389100
73345303e-29 .040263075486978 -2496267081930625e-30 -607013097735161e-28 -1 6070
13097735152e-28 .0020447 -1 607013097735156e-28 -722634640161274e-29 40 20 180 0
 1 20 3571343075015845e-20 .3503926135300995 ??.00059563000000308 .05141595 -.00
195602223737676 .000563713573281373 .0516083093101514 -.00196545798665714 .00047
22839535131 .0517788865842088 -.001989408444053075 .0003270605776828255 .0519137
516426531 -.00201837297557729 .0001409216378797114 .051994669438829 -.0020398380
2837168 -57060007562217e-18 .0520088405906126 -.002043903678148695 -.00024283082
75904275 .0519598326032064 -.002030229366151335 -.0004040701672940445 .051853559
8682625 -.002004376558911345 -.00052609821492601 .0516952272191723 -.00197585899
2504535 -.000589300637332957 .0515025517074624 -.001957938418042765 -.0005854378
7929178 .0513062340650285 -.00195909687853847 -.000520689680642213 .051126714190
7209 -.00197729116381023 -.000399631912952455 .0509742833485 -.00200526617289579
5 -.000229211472441278 .0508661889630034 -.00203181204615798 -3278784313811415e-
20 .0508212231263498 -.00204443709792084 .000160528553022 .0508423598322275 -.00
203838874449366 .000334320647790053 .050922994828242 -.00201718313359892 .000476
588616163786 .0510586848493824 -.001988381598425845 .000568778926958123 .0512391
291043124 -.001963998121756805 .00059563000000308 .05141595 -.00195602223737676
 41 1 181 H?.00059563000000308 .05141595 -.00195602223737676 204 80 182 4 0 .019
7370222373736 1.86638636345952 -.01115287451302244 5.95433938103427 .01974645798
665395 1.85010897828937 -.0113452338231736 5.62796710060312 .0197704084440499 1.
803880698124665 -.011515811097231 5.29367625898463 .0197993729755741 1.731441684
522915 -.01165067615567522 4.95124633751205 .01982083802836845 1.63977145304462
 -.01173159395185112 4.61644410652001 .0198249036781455 1.54288640544483 -.01174
576510363478 4.29246901942241 .01981122936614815 1.4517542650438 -.0116967571162
2854 3.966818261897055 .01978537655890815 1.37186860339737 -.01159048438128464 3
.62961160276725 .01975685899250135 1.310570806096244 -.01143215173219438 3.28750
49987521 .0197389384180396 1.278440536819964 -.01123947622048444 2.9563332622477
8 .0197400968785353 1.280412822743666 -.0110431585780506 2.634547329102005 .0197
5829116380705 1.313307120526668 -.01086363870374302 2.306271889665045 .019786266
17289265 1.374082392917236 -.0107112078615221 1.96581118946905 .0198128120461548
5 1.458459910177944 -.01060311347602554 1.62587149890527 .0198254370979177 1.554
76011196079 -.0105581476393719 1.29791161598817 .0198193887444905 1.649386790872
3 -.01057928434524964 .974853705817013 .0197981831335958 1.735039732513585 -.010
65991934126412 .643264302045024 .0197693815984227 1.806045046129145 -.0107956093
624046 .3014065576420945 .01974499812175365 1.852687121793875 -.0109760536173346
 ????51 21 850 0 190 172 179 191 +-.017780999999997 .0514159500000015 -323872872
96487e-28 1 -607013097735158e-28 3734865062769605e-30 59563e-8 -3734865062765925
e-30 607013097735154e-28 1 51 188 845 0 192 179 193 0 --549206841164557e-31 4371
503159461555e-31 -520417042793042e-31 607013097735161e-28 1 -607013097735152e-28
 .00635 1 -607013097735156e-28 722634640161274e-29 141 189 194 195 196 179 38 19
4 896 0 197 198 199 0 +21 179 200 201 201 202 141 195 203 204 189 179 141 196 17
5 189 204 179 141 204 187 196 195 179 38 187 901 0 205 178 206 0 +157 179 207 20
8 208 209 16 205 525 0 ?210 211 212 187 213 212 1 32 206 900 0 211 187 203 0 -30
67829547609135e-30 .05141595 -3175411322775545e-30 .707106781186546 -43545121968
19985e-43 .707106781186549 .707106781186549 -858446155355163e-28 -.7071067811865
46 .002301337599650225 59563e-8 40 20 207 0 1 20 357134307501574e-19 .3503926135
30098 ??.00149384182994599 .05141595 -.001396149947935982 .00147091926824715 .05
16083093101514 -.001420279759877388 .001403714123567436 .0517788865842088 -.0014
86736274298664 .00129242925663719 .051913751642653 -.001584431982322495 .0011419
6073253138 .0519946694388289 -.00169609073323757 .000972536422984134 .0520088405
906126 -.00179860251194832 .000804817017559159 .0519598326032064 -.0018796456203
93435 .000652253249666404 .0518535598682625 -.001937876102416265 .00053231507723
9501 .0516952272191722 -.00197419318926983 .000468619886623491 .0515025517074623
 -.00199027472773899 .000472544363463679 .0513062340650284 -.001989346604936955
 .000537715090979371 .0511267141907209 -.001972729218861215 .000656541697666923
 .0509742833484999 -.00193642740355553 .000817403065104831 .0508661889630034 -.0
0187420658391063 .000993823443866339 .0508212231263497 -.00178692838480978 .0011
58216177195464 .0508423598322274 -.00168503215901072 .00129812174079414 .0509229
948282419 -.001579771513889085 .001406928647964054 .0510586848493824 -.001483694
66857435 .00147457606076021 .0512391291043124 -.001416482802949216 .001493841829
94599 .05141595 -.00139614994793598 41 1 208 H?.00149384182994599 .05141595 -.00
1396149947935982 204 80 209 4 0 .02624531994206465 2.38998513905781 -.0111528745
1302244 5.95433938103427 .026254755691345 2.373707753887665 -.0113452338231736 5
.62796710060312 .02627870614874095 2.327479473722955 -.011515811097231 5.2936762
5898463 .02630767068026515 2.25504046012121 -.01165067615567522 4.95124633751205
 .02632913573305955 2.16337022864291 -.01173159395185112 4.61644410652 .02633320
138283655 2.066485181043125 -.01174576510363478 4.29246901942241 .02631952707083
92 1.97535304064209 -.01169675711622854 3.966818261897055 .0262936742635992 1.89
546737899566 -.01159048438128464 3.62961160276725 .0262651566971924 1.8341695816
94535 -.01143215173219438 3.2875049987521 .02624723612273065 1.802039312418255 -
.01123947622048444 2.95633326224778 .02624839458322635 1.80401159834196 -.011043
1585780506 2.634547329102005 .02626658886849815 1.83690589612496 -.0108636387037
4302 2.306271889665045 .0262945638775837 1.89768116851553 -.0107112078615221 1.9
65811189469045 .0263211097508459 1.982058685776235 -.01060311347602554 1.6258714
98905275 .02633373480260875 2.078358887559085 -.0105581476393719 1.2979116159881
7 .0263276864491816 2.172985566470595 -.01057928434524964 .974853705817011 .0263
0648083828685 2.258638508111875 -.01065991934126412 .643264302045026 .0262776793
0311375 2.329643821727435 -.0107956093624046 .301406557642095 .0262532958264447
 2.37628589739217 -.0109760536173346 ????16 211 522 0 ?214 215 205 206 0 0 1 38
 203 899 0 216 206 198 0 +172 179 217 218 218 219 16 216 521 0 ?220 221 222 203
 215 222 1 32 198 897 0 221 203 194 0 -307129899456109e-29 .05141595 -3175411322
775545e-30 .2588190451025175 429223077677579e-28 .965925826289069 .9659258262890
69 -743436178318656e-28 -.2588190451025175 .002301337599650225 59563e-8 51 172 8
52 0 223 157 21 224 +-.02103514885234255 .0514159500000024 .01214464885234232 .8
6602540378444 -829195311936111e-28 -.5 59563e-8 .5 22218221420095e-27 .866025403
78444 40 20 217 0 1 20 357134307501612e-19 .3503926135300985 ??.0019917799479358
75 .05141595 -.000462180407433838 .001983993333155565 .0516083093101514 -.000494
538718413064 .00195902022780856 .0517788865842088 -.000585694320488724 .00191149
2560002105 .0519137516426531 -.000725943718943196 .00183701237111406 .0519946694
388289 -.000897877295843396 .00174154250438288 .0520088405906126 -.0010713672551
67656 .00163681479279979 .0519598326032064 -.00122541234859527 .0015338059351190
1 .0518535598682625 -.001352123309248028 .00144809497434062 .0516952272191722 -.
001443543915268106 .001400974090402846 .0515025517074623 -.001489318531422338 .0
01403908725642 .0513062340650284 -.001486552515077842 .001452039538215836 .05112
67141907208 -.001439576072833902 .00153679549059992 .0509742833484999 -.00134872
4475231906 .001644995111466205 .0508661889630034 -.001214408981056176 .001754140
541668515 .0508212231263497 -.001050613654057524 .00184556071202957 .05084235983
22275 -.000880172567301221 .00191409216167598 .0509229948282419 -.00071906139280
7812 .001960283284734975 .0510586848493824 -.000581452950464834 .001985261729904
165 .0512391291043124 -.00048942206099965 .001991779947935875 .05141595 -.000462
180407433838 41 1 218 H?.001991779947935875 .05141595 -.000462180407433838 204 8
0 219 4 0 .0262453199420647 2.913583914656115 -.01115287451302244 5.954339381034
27 .0262547556913451 2.897306529485965 -.0113452338231736 5.62796710060313 .0262
78706148741 2.85107824932126 -.011515811097231 5.29367625898463 .026307670680265
2 2.77863923571951 -.01165067615567522 4.95124633751205 .0263291357330596 2.6869
69004241215 -.01173159395185112 4.61644410652001 .0263332013828366 2.59008395664
1425 -.01174576510363478 4.292469019422415 .02631952707083925 2.498951816240395
 -.01169675711622854 3.966818261897055 .0262936742635993 2.419066154593965 -.011
59048438128464 3.629611602767255 .02626515669719245 2.35776835729284 -.011432151
73219438 3.287504998752105 .0262472361227307 2.325638088016555 -.011239476220484
44 2.95633326224778 .02624839458322645 2.32761037394026 -.0110431585780506 2.634
547329102005 .0262665888684982 2.36050467172326 -.01086363870374302 2.3062718896
65045 .0262945638775838 2.42127994411383 -.0107112078615221 1.96581118946905 .02
632110975084595 2.50565746137454 -.01060311347602554 1.625871498905275 .02633373
480260885 2.601957663157385 -.0105581476393719 1.297911615988168 .02632768644918
165 2.696584342068895 -.01057928434524964 .97485370581701 .0263064808382869 2.78
2237283710175 -.01065991934126412 .643264302045026 .02627767930311385 2.85324259
732574 -.0107956093624046 .3014065576420945 .0262532958264448 2.89988467299047 -
.0109760536173346 ????14 223 698 225 ?190 169 226 5 172 +0 0 190 169 27 141 224
 19 227 227 172 38 19 383 0 228 150 7 0 +20 172 229 230 230 231 141 227 203 224
 224 172 16 228 592 0 ?232 233 156 19 0 0 1 40 20 229 0 1 20 3396993668235595e-2
0 .339935806837827 ??.00422353871383281 .05141595 -.001750686931690735 .00421059
235773004 .0516121569027651 -.001781599280720255 .00417207337862753 .05178622995
83325 -.00187002345530356 .004108865858603595 .0519196068968935 -.00200509484963
6865 .004024179954715265 .051996595394662 -.002170059836066035 .0039257767987372
65 .0520078511812227 -.002343386550813965 .003824608966076765 .0519531962859114
 -.00250510483945186 .00373298638109952 .0518387409092888 -.00263969632317159 .0
036642233191143 .0516759195441939 -.002734346625374905 .003630260054667385 .0514
83415512361 -.002779279751217285 .00363688656721508 .0512846110019152 -.00277060
284004229 .003682311359535935 .0511012717283726 -.002709938569686085 .0037593455
9850982 .0509521699081705 -.00260201934485587 .003856366991733285 .0508544467051
507 -.00245593518340956 .00395870031743082 .0508203219784737 -.00228732940277775
5 .004053092229327105 .0508529405732666 -.002115567862444105 .004130828136779475
 .0509479789289837 -.001959449643249015 .004186695940768945 .0510960199352788 -.
0018370522854797 .004217526809134685 .0512809264896229 -.001765120849762825 .004
223538713832815 .05141595 -.00175068693169074 41 1 230 H?.00422353871383281 .051
41595 -.001750686931690735 204 80 231 4 3.534542289159475 .03592195 693186789920
222e-44 .02882233299057855 3.541872554802695 .03611815690276545 5.94750592166766
 .02882657729182185 3.56296868291594 .0362922299583328 5.61232379504921 .0288374
3096468285 3.59558803047442 .0364256068968938 5.2755217870444 .02885022734379855
 3.63614906331044 .03650259539466235 4.9371723008038 .0288593696929034 3.6797465
9851583 .036513851181223 4.6004350918892 .02886081341738785 3.721472218340925 .0
3645919628591175 4.26592588076158 .028854058648577 3.75708599536328 .03634474090
92891 3.930837248145365 .02884200690428615 3.78267541112616 .0361819195441942 3.
593254644974935 .02882978149686665 3.79499501081194 .03598941551236135 3.2551037
42714555 .02882283500998135 3.792607028979965 .0357906110019156 2.91926114954969
 .0288242352825987 3.77603065493854 .0356072717283729 2.58498182965365 .02883324
21715321 3.74702860313117 .0354581699081708 2.24910054005716 .0288459961670296 3
.708669422267225 .03536044670515105 1.910945647567725 .0288569770775485 3.665527
21460825 .035326321978474 1.57337378698299 .02886129744694045 3.62265660058173 .
03535894057326695 1.238309239617678 .02885716247038755 3.58450879876936 .0354539
78928984 .90378504006358 .02884642463143 3.555079722815435 .0356020199352791 .56
7029569167786 .02883360889005385 3.53796221380399 .03578692648962325 .2286781097
131195 .0288243434874209 3.534542289159475 .03592195 693186789920224e-44 .028822
33299057855 17 232 0 234 232 232 0 235 228 0 0 +16 233 350 0 ?236 146 228 148 0
 0 1 16 156 594 0 ?237 228 238 150 0 0 1 17 237 0 239 237 237 0 240 156 0 0 +16
 238 601 0 ?241 156 141 242 0 0 1 17 241 0 243 244 43 95 82 238 0 0 +16 141 600
 0 ?42 238 127 245 0 0 1 30 242 874 0 238 245 246 0 -3173908732863305e-30 .05319
20880954124 -328122945481013e-29 24092455326418e-27 .500000000000048 .8660254037
84411 30 245 875 0 141 142 242 0 -3173908732863305e-30 .0531920880954124 -328209
681654812e-29 .866025403784411 -.500000000000048 3660885444710025e-29 30 246 265
 0 146 242 148 0 +973544949379017e-30 .01549399999999975 -.00457200000000094 607
013097735161e-28 1 -607013097735152e-28 16 146 359 0 ?247 140 233 246 0 0 1 30 1
48 261 0 233 246 147 0 +.00457200000000094 .01549399999999975 -90726037793587e-2
9 607013097735161e-28 1 -607013097735152e-28 17 247 0 248 37 37 47 249 146 0 0 +
15 248 368 0 37 15 0 17 37 0 248 247 247 11 33 29 0 249 -17 249 0 243 35 244 11
 247 146 0 0 -15 243 472 0 250 17 0 17 35 0 243 251 249 53 30 36 0 0 +17 244 0 2
43 249 241 47 97 132 0 247 +17 97 0 32 252 33 95 244 132 0 253 -16 132 531 0 ?24
4 36 124 254 0 0 1 16 36 528 0 ?35 255 132 256 0 0 1 30 254 921 0 132 134 256 0
 +2973758679906545e-30 .0520115800000015 .0177809999999968 722634640160906e-29 -
607013097735156e-28 -1 30 134 928 0 124 257 254 0 +3759715897284775e-31 .0070985
6633164376 -483120488059541e-30 .712186069433958 -.701990742463325 4775826075653
67e-28 30 256 919 0 36 254 258 0 -290144763762575e-29 .0508203200000015 .0177809
9999999685 722634640160906e-29 -607013097735156e-28 -1 30 258 917 0 255 256 259
 0 +24038764439404e-28 .04026307548697785 -.002044700000002495 -607013097735161e
-28 -1 607013097735152e-28 16 255 552 0 ?251 260 36 258 0 0 1 30 259 915 0 260 2
58 261 0 +1258230754979812e-30 .02163300007851265 -1365227375593746e-30 48955703
1060489e-28 .866025403784468 .49999999999995 16 260 544 0 ?94 262 255 259 0 0 1
 30 261 914 0 262 259 186 0 +715985950007198e-30 .01270000000000042 -82312628935
0995e-30 -722634640160906e-29 607013097735156e-28 1 16 262 543 0 ?91 263 260 261
 0 0 1 30 186 912 0 263 261 177 0 +-903338446623816e-32 516969988843313e-31 -.00
635 607013097735161e-28 1 -607013097735152e-28 16 263 542 0 ?88 185 262 186 0 0
 1 17 88 0 264 265 129 86 250 263 0 266 +16 185 541 0 ?85 184 263 177 0 0 1 17 8
5 0 121 122 100 83 128 185 0 129 +16 184 530 0 ?253 176 185 175 176 176 1 17 253
 0 267 79 210 95 252 184 0 268 +15 267 746 0 253 269 0 17 79 0 267 210 253 77 26
8 270 0 271 +17 210 0 267 253 79 71 272 205 0 252 +17 252 0 32 273 97 71 253 184
 0 0 -17 268 0 274 82 275 95 79 270 0 241 -15 274 815 0 118 171 0 17 82 0 274 11
8 268 80 241 238 0 42 -17 275 0 274 268 276 77 76 277 0 0 -16 270 602 0 ?79 278
 277 199 279 277 1 16 278 553 0 ?280 281 270 282 0 0 1 16 277 603 0 ?76 270 279
 199 270 279 1 31 255 199 885 0 279 194 282 0 +3102250345273555e-30 .05201158 -3
209238430557095e-30 -607013097735161e-28 -1 607013097735152e-28 -1 6070130977351
56e-28 -722634640161274e-29 .0020447 16 279 604 0 ?283 277 197 199 277 270 1 17
 283 0 284 285 286 116 276 279 0 287 +16 197 516 0 ?285 279 288 194 288 288 1 17
 285 0 284 286 283 59 287 197 0 289 +16 288 518 0 ?290 197 221 194 197 197 1 17
 290 0 291 112 58 113 292 288 0 293 +16 221 517 0 ?294 288 216 198 0 0 1 17 294
 0 226 295 289 56 61 221 0 292 +15 226 700 0 289 223 234 17 295 0 226 67 294 62
 58 222 0 0 -17 289 0 226 294 296 59 286 215 0 0 -17 61 0 297 287 292 59 294 221
 0 285 -17 292 0 297 61 115 56 290 288 0 0 -15 297 697 0 28 190 0 17 115 0 297 2
92 28 113 298 299 0 290 -17 28 0 297 115 46 51 300 10 0 298 +17 298 0 40 236 293
 51 115 299 0 301 +16 299 519 0 ?298 302 303 304 0 0 1 16 302 554 0 ?293 305 299
 306 0 0 1 16 303 515 0 ?307 299 0 308 0 0 1 30 304 937 0 299 308 306 0 +-.01778
099999999705 .0508203200000015 -326561694352634e-29 1 -607013097735158e-28 37348
65062769605e-30 30 308 939 0 303 0 304 0 --.01778099999999695 .0520115800000015
 -3337607967779375e-30 1 -607013097735158e-28 3734865062769605e-30 30 306 935 0
 302 304 309 0 -.00204470000000239 .04026307548697785 -2481521932384825e-30 -607
013097735161e-28 -1 607013097735152e-28 30 309 933 0 305 306 310 0 +125823075497
9812e-30 .02163300007851265 -1365227375593746e-30 .49999999999995 -.866025403784
468 561820495076591e-28 16 305 547 0 ?109 311 302 309 0 0 1 30 310 932 0 311 309
 257 0 +715985950007198e-30 .01270000000000042 -823126289350995e-30 1 -607013097
735156e-28 722634640161274e-29 16 311 548 0 ?106 133 305 310 0 0 1 30 257 930 0
 133 310 134 0 -.00635 516969988843314e-31 -607153216591882e-32 607013097735161e
-28 1 -607013097735152e-28 16 133 549 0 ?103 124 311 257 0 0 1 17 103 0 264 129
 265 101 131 133 0 122 +15 264 783 0 88 192 0 17 129 0 264 88 103 83 122 130 0 2
50 -17 265 0 264 103 88 104 266 312 0 131 -17 131 0 40 313 123 104 103 133 0 0 -
17 313 0 40 314 131 107 106 311 0 0 -17 314 0 40 293 313 110 109 305 0 0 -17 106
 0 315 266 316 104 313 311 0 265 +15 315 749 0 91 170 0 17 266 0 315 91 106 86 2
65 312 0 317 +17 316 0 315 106 91 107 318 281 0 313 -17 91 0 315 316 266 89 317
 262 0 318 +17 318 0 319 94 109 89 316 281 0 320 +16 281 555 0 ?318 312 278 321
 0 0 1 16 312 581 0 ?266 130 281 322 0 0 1 31 321 883 0 281 282 322 0 -715985950
007198e-30 .01270000000000042 -823126289350995e-30 -607013097735161e-28 -1 60701
3097735152e-28 -1 607013097735156e-28 -722634640161274e-29 .00515747 31 282 884
 0 278 199 321 0 +1043255592210566e-30 .0180914757922766 -1150121664572622e-30 -
607013097735161e-28 -1 607013097735152e-28 -1 607013097735156e-28 -7226346401612
74e-29 .0020447 31 322 882 0 312 321 323 0 -715985950007198e-30 .012700000000000
42 -823126289350995e-30 -607013097735161e-28 -1 607013097735152e-28 -1 607013097
735156e-28 -722634640161274e-29 .00635 31 323 879 0 130 322 142 0 +-396375560088
243e-32 .000839470000000432 -10321604682062e-29 -607013097735161e-28 -1 60701309
7735152e-28 -1 607013097735156e-28 -722634640161274e-29 .00635 16 130 580 0 ?122
 127 312 323 0 0 1 31 142 878 0 127 323 245 0 --549206841164557e-31 437150315946
1555e-31 -520417042793042e-31 -607013097735161e-28 -1 607013097735152e-28 -1 607
013097735156e-28 -722634640161274e-29 .007201662 15 319 774 0 94 324 0 17 94 0 3
19 280 318 92 320 260 0 325 +17 109 0 319 318 280 107 314 305 0 316 +17 320 0 24
3 317 251 89 94 260 0 0 -17 317 0 243 250 320 86 91 262 0 0 -17 251 0 243 320 35
 92 55 255 0 0 +17 55 0 291 70 325 53 251 255 0 34 -15 291 731 0 70 326 0 17 70
 0 291 64 55 68 34 176 0 273 +17 325 0 291 55 112 92 280 278 0 251 -17 34 0 32 3
0 273 53 70 176 0 35 -15 32 708 0 33 165 0 17 273 0 32 34 252 68 73 183 0 327 +1
7 73 0 328 272 327 71 273 183 0 210 -16 183 526 0 ?273 213 176 178 0 0 1 17 327
 0 328 73 214 68 64 212 0 0 -15 328 704 0 329 169 239 17 214 0 328 327 329 62 67
 211 0 295 +17 64 0 291 58 70 62 327 212 0 214 +16 212 527 0 ?64 205 213 187 205
 213 1 16 213 524 0 ?271 212 183 187 212 205 1 17 271 0 330 76 220 77 329 213 0
 272 +15 330 741 0 271 331 0 17 76 0 330 220 271 74 275 277 0 286 +17 220 0 330
 271 76 65 296 216 0 329 +17 329 0 328 214 272 65 271 213 0 0 -17 272 0 328 329
 73 77 210 205 0 275 -17 296 0 226 289 67 74 220 216 0 276 -17 67 0 226 296 295
 65 214 211 0 220 -17 276 0 274 275 118 74 283 279 0 0 -17 118 0 274 276 82 116
 42 141 0 283 -17 42 0 40 38 307 80 118 141 0 43 +17 307 0 40 42 236 116 46 303
 0 0 +17 43 0 243 241 45 80 38 44 0 0 -17 45 0 243 43 128 31 137 140 0 136 +17 1
28 0 243 45 250 98 85 185 0 137 -17 250 0 243 128 317 83 88 263 0 0 -17 236 0 40
 307 298 39 301 233 0 0 +17 46 0 297 28 287 39 307 303 0 300 -17 287 0 297 46 61
 116 285 197 0 307 -17 300 0 332 301 301 39 28 10 0 236 -15 332 388 0 300 161 0
 17 301 0 332 300 300 51 236 233 0 0 -14 161 390 333 ?138 15 332 5 20 -334 15 13
8 15 27 81 1 333 1439 335 161 0 0 336 337 338 14 138 43 337 ?143 161 135 5 163 +
0 0 143 161 27 14 15 370 336 ?161 0 248 5 20 -161 339 161 0 27 14 334 384 340 ?0
 339 341 5 20 -339 161 0 339 27 13 27 1034 0 0 0 0 0 0 9 15 81 1 340 1457 335 33
4 0 0 342 0 343 14 339 377 342 ?334 326 344 5 20 -15 334 334 326 27 15 341 382 0
 235 334 0 17 235 0 341 235 235 0 232 228 0 0 -81 1 342 1456 335 339 0 0 345 340
 346 14 326 727 345 ?339 190 291 5 347 +348 269 339 190 27 15 344 375 0 240 339
 0 17 240 0 344 240 240 0 237 156 0 0 -81 1 345 1455 335 326 0 0 349 342 350 14
 190 695 349 ?326 223 297 5 21 +0 0 326 223 27 51 347 836 0 326 193 351 0 +23891
0073345303e-29 .040263075486978 -2496267081930625e-30 -607013097735161e-28 -1 60
7013097735152e-28 .0020447 -1 607013097735156e-28 -722634640161274e-29 14 348 73
2 352 ?331 17 284 5 347 +331 326 331 17 27 14 269 742 353 ?324 171 267 5 347 +32
6 331 324 171 27 81 1 353 1446 335 269 0 0 354 355 356 14 324 772 355 ?126 269 3
19 5 351 -0 0 126 269 27 14 171 813 354 ?269 331 274 5 166 +0 0 269 331 27 14 33
1 737 357 ?171 348 330 5 347 +269 348 171 348 27 81 1 357 1444 335 331 0 0 352 3
54 358 80 255 1 335 0 359 8001 0 0 0 0 3 5 0 0 0 FFFFTFTFFFFFFF2 81 1 352 1443 3
35 348 0 0 360 357 361 81 1 354 1445 335 171 0 0 357 353 362 83 255 3 358 .79215
6862745098 .819607843137255 .933333333333333 83 3 362 .792156862745098 .81960784
3137255 .933333333333333 81 1 360 1442 335 17 0 0 363 352 364 83 3 361 .79215686
2745098 .819607843137255 .933333333333333 14 17 474 360 ?348 143 243 5 6 -0 0 34
8 143 27 81 1 363 1441 335 143 0 0 337 360 365 83 3 364 .792156862745098 .819607
843137255 .933333333333333 14 143 432 363 ?17 138 40 5 18 -0 0 17 138 27 81 1 33
7 1440 335 138 0 0 333 363 366 83 3 365 .792156862745098 .819607843137255 .93333
3333333333 83 3 366 .792156862745098 .819607843137255 .933333333333333 50 18 87
 0 143 163 6 0 +339198919014408e-29 .05588 -3392251757272645e-30 722634640160906
e-29 -607013097735156e-28 -1 -1 607013097735156e-28 -722634640161274e-29 50 163
 65 0 138 20 18 0 +55064759580261e-30 -462543980474189e-30 -.00762 -607013097735
161e-28 -1 607013097735152e-28 1 -607013097735156e-28 722634640161274e-29 79 255
 15 359 SDL/TYSA_COLOUR81 1 355 1447 335 324 0 0 353 367 368 14 126 787 367 ?192
 324 121 5 162 -0 0 192 324 27 52 351 835 0 324 347 162 0 -1043255592210566e-30
 .0180914757922766 -1150121664572622e-30 -607013097735161e-28 -1 607013097735152
e-28 .0020447 .5 .866025403784437 -1 607013097735156e-28 -722634640161274e-29 52
 162 833 0 126 351 20 0 --396375560088243e-32 .000839470000000432 -1032160468206
2e-29 -607013097735161e-28 -1 607013097735152e-28 .00635 .712186069434001 .70199
0742463281 -1 607013097735156e-28 -722634640161274e-29 81 1 367 1448 335 126 0 0
 355 369 370 14 192 781 369 ?170 126 264 5 188 -0 0 170 126 27 81 1 369 1449 335
 192 0 0 367 371 372 14 170 747 371 ?165 192 315 5 193 -0 0 165 192 27 81 1 371
 1450 335 170 0 0 369 168 373 50 193 840 0 170 188 347 0 +715985950007198e-30 .0
1270000000000042 -823126289350995e-30 -607013097735161e-28 -1 607013097735152e-2
8 -1 607013097735156e-28 -722634640161274e-29 81 1 168 1451 335 165 0 0 371 374
 375 83 3 373 .792156862745098 .819607843137255 .933333333333333 81 1 374 1452 3
35 169 0 0 168 225 376 83 3 375 .792156862745098 .819607843137255 .9333333333333
33 14 169 702 374 ?223 165 328 5 157 +0 0 223 165 27 81 1 225 1453 335 223 0 0 3
74 349 377 83 3 376 .792156862745098 .819607843137255 .933333333333333 81 1 349
 1454 335 190 0 0 225 345 378 83 3 377 .792156862745098 .819607843137255 .933333
333333333 83 3 378 .792156862745098 .819607843137255 .933333333333333 83 3 372 .
792156862745098 .819607843137255 .933333333333333 83 3 370 .792156862745098 .819
607843137255 .933333333333333 83 3 368 .792156862745098 .819607843137255 .933333
333333333 83 3 356 .792156862745098 .819607843137255 .933333333333333 15 284 736
 0 286 348 0 17 286 0 284 283 285 74 289 215 0 296 +16 215 520 0 ?286 222 211 20
3 222 216 1 16 222 523 0 ?58 216 215 203 216 215 1 17 58 0 291 290 64 56 295 222
 0 294 +83 3 350 .792156862745098 .819607843137255 .933333333333333 83 3 346 .79
2156862745098 .819607843137255 .933333333333333 83 3 343 .792156862745098 .81960
7843137255 .933333333333333 81 1 336 1438 335 15 0 0 0 333 379 83 3 379 .7921568
62745098 .819607843137255 .933333333333333 83 3 338 .792156862745098 .8196078431
37255 .933333333333333 15 239 705 0 237 169 0 17 33 0 32 97 30 47 37 29 0 244 +1
7 112 0 291 325 290 110 293 302 0 280 -17 280 0 319 109 94 110 325 278 0 314 +17
 293 0 40 298 314 113 112 302 0 0 +15 234 701 0 232 223 0 40 20 200 0 1 20 35713
43075015845e-20 .3503926135301 ??.00195602223737666 .05141595 .00059562999999683
5 .001965457986657035 .0516083093101515 .000563713573275104 .001989408444052965
 .0517788865842089 .00047228395350681 .002018372975577185 .0519137516426531 .000
3270605776765175 .002039838028371575 .051994669438829 .0001409216378733942 .0020
4390367814859 .0520088405906126 -570600075685355e-19 .00203022936615123 .0519598
326032064 -.0002428308275967395 .00200437655891124 .0518535598682625 -.000404070
167300344 .001975858992504425 .0516952272191722 -.000526098214932291 .0019579384
18042655 .0515025517074623 -.000589300637339214 .00195909687853836 .051306234065
0284 -.000585437879298014 .00197729116381012 .0511267141907209 -.000520689680648
424 .002005266172895685 .0509742833484999 -.0003996319129586465 .002031812046157
87 .0508661889630034 -.000229211472447458 .00204443709792073 .0508212231263498 -
3278784314428815e-20 .00203838874449355 .0508423598322275 .0001605285530158235 .
00201718313359881 .050922994828242 .0003343206477838665 .00198838159842574 .0510
586848493825 .000476588616157582 .0019639981217567 .0512391291043125 .0005687789
26951899 .00195602223737666 .05141595 .000595629999996835 41 1 201 H?.0019560222
3737666 .05141595 .000595629999996835 204 80 202 4 0 .01973702223737365 3.437182
690254415 -.01115287451302244 5.95433938103427 .019746457986654 3.42090530508426
5 -.0113452338231736 5.62796710060312 .01977040844404995 3.37467702491956 -.0115
15811097231 5.29367625898463 .01979937297557415 3.30223801131781 -.0116506761556
7522 4.95124633751205 .01982083802836855 3.21056777983951 -.01173159395185112 4.
61644410652001 .01982490367814555 3.113682732239725 -.01174576510363478 4.292469
01942241 .0198112293661482 3.022550591838695 -.01169675711622854 3.9668182618970
55 .0197853765589082 2.942664930192265 -.01159048438128464 3.62961160276725 .019
7568589925014 2.88136713289114 -.01143215173219438 3.2875049987521 .019738938418
03965 2.84923686361486 -.01123947622048444 2.95633326224778 .01974009687853535 2
.85120914953856 -.0110431585780506 2.634547329102005 .01975829116380715 2.884103
44732156 -.01086363870374302 2.306271889665045 .0197862661728927 2.9448787197121
3 -.0107112078615221 1.96581118946905 .0198128120461549 3.029256236972835 -.0106
0311347602554 1.62587149890527 .01982543709791775 3.125556438755685 -.0105581476
393719 1.29791161598817 .0198193887444906 3.220183117667195 -.01057928434524964
 .974853705817012 .01979818313359585 3.305836059308475 -.01065991934126412 .6432
64302045025 .01976938159842275 3.37684137292404 -.0107956093624046 .301406557642
0945 .0197449981217537 3.42348344858877 -.0109760536173346 ????141 191 7 380 380
 21 141 380 194 191 191 21 141 173 150 381 381 157 141 381 187 173 173 157 141 1
64 149 382 383 20 141 382 7 384 164 20 141 383 150 164 384 20 141 384 19 383 382
 20 40 20 158 0 1 20 339699366823498e-19 .3399358068378015 ??.002782348354202875
 .05141595 -.003627908713832885 .002755680306416685 .0516121569027651 -.00364820
64153317 .00267810980469442 .0517862299583325 -.003705524507278255 .002555834789
47684 .0519196068968935 -.003790896006083505 .002400012152152505 .05199659539466
2 -.003891416923121965 .00222812916188903 .0520078511812227 -.00399232068325917
 .00205965610444028 .0519531962859114 -.00408178891314588 .001913012876429715 .0
518387409092888 -.004152537264691585 .001806137166806845 .0516759195441939 -.004
200125299882925 .00175425755407917 .051483415512361 -.004222056896110415 .001764
334737871465 .0512846110019153 -.00421785572688034 .00183400589716105 .051101271
7283726 -.00418803132381025 .00195467911748874 .0509521699081705 -.0041330876530
3751 .00211174418945396 .0508544467051507 -.004055085754746195 .0022846703394776
85 .0508203219784737 -.00396023552834291 .00245229690325848 .0508529405732666 -.
00385868162696896 .002597677283496015 .0509479789289837 -.00376234723687861 .002
70725889988921 .0510960199352787 -.003684281917689025 .00276992493297312 .051280
9264896229 -.00363740290121039 .002782348354202875 .05141595 -.00362790871383288
5 41 1 159 H?.002782348354202875 .05141595 -.003627908713832885 204 80 160 4 4.0
58141064757775 .03592195 954360864054495e-44 .02882233299057845 4.065471330401 .
03611815690276545 5.94750592166766 .02882657729182175 4.08656745851424 .03629222
99583328 5.61232379504921 .02883743096468275 4.119186806072715 .0364256068968938
 5.27552178704441 .02885022734379845 4.15974783890874 .03650259539466235 4.93717
23008038 .0288593696929033 4.20334537411413 .036513851181223 4.6004350918892 .02
886081341738775 4.245070993939225 .03645919628591175 4.26592588076158 .028854058
6485769 4.28068477096158 .0363447409092891 3.930837248145365 .02884200690428605
 4.30627418672446 .0361819195441942 3.59325464497492 .02882978149686655 4.318593
78641024 .03598941551236135 3.25510374271457 .02882283500998125 4.31620580457826
5 .0357906110019156 2.91926114954969 .0288242352825986 4.29962943053684 .0356072
717283729 2.584981829653655 .028833242171532 4.27062737872947 .0354581699081708
 2.24910054005715 .0288459961670295 4.23226819786553 .03536044670515105 1.910945
647567745 .0288569770775484 4.18912599020655 .035326321978474 1.573373786982995
 .02886129744694035 4.14625537618003 .03535894057326695 1.238309239617672 .02885
716247038745 4.10810757436766 .035453978928984 .90378504006358 .0288464246314299
 4.078678498413735 .0356020199352791 .567029569167788 .02883360889005375 4.06156
098940229 .03578692648962325 .2286781097131205 .02882434348742075 4.058141064757
775 .03592195 954360864054495e-44 .02882233299057845 19 16 95 0 1 0 9 5 S0 40 11
 22 0 1 11 33964351632827e-18 .3399071430347855 ??.00457200000000316 .05201158 -
312336961849624e-29 .00456778760005863 .0519783330154981 -.000196215291913468 .0
0455697979142417 .0518824860825485 -.0003702960715195375 .0045441730475888 .0517
339119211542 -.000503661904057874 .00453497873916165 .0515487026328171 -.0005806
47772219825 .00453352391075731 .0513493906559523 -.000591899442999951 .004540324
35099378 .0511587801940374 -.000537251140347286 .00455240808461478 .050996413987
5556 -.0004228056659563195 .00456460250005212 .0508800516137795 -.00025997695387
8034 .00457150195776076 .0508241550636563 -674822214969915e-19 .0045720000000030
8 .05082032 -3182350216679455e-30 41 1 23 L?.00457200000000316 .05201158 -312336
961849624e-29 41 1 24 L?.00457200000000308 .05082032 -3182350216679455e-30 204 4
4 25 4 3.141592653589795 .03651758 4.71238898038481 .022353 3.18452256936815 .03
648433301549835 4.37669467777329 .0223487876000556 3.222673605346585 .0363884860
8254875 4.04149293081189 .02233797979142115 3.25197896702234 .03623991192115445
 3.704709712770035 .0223251730475858 3.26893738449221 .0360547026328173 3.366358
06504891 .02231597873915865 3.27141886692448 .03585539065595255 3.02961264663197
 .0223145239107543 3.259373780791665 .03566478019403765 2.695148429965935 .02232
13243509908 3.234202154481565 .03550241398755585 2.36007609450012 .0223334080846
118 3.198486192302985 .0353860516137797 2.022472144786805 .02234560250004915 3.1
56353080525585 .0353301550636565 1.684335650541135 .0223525019577578 3.141592653
58982 .03532632 1.570796326795 .022353 74 4 CI16 index_map_offset0 0 1 dCCZ20 14
 2 0 0 2 340 0 0 0 0 0 0 0 0 0 0 0 0 0 0 0 0 0 0 80 2 12 385 386 8004 0 0 0 0 3
 5 0 0 0 FFTFFFFFFFFFFF2 3 83 1 13 1 79 16 386 SDL/TYSA_DENSITY1 0 
